HIERARCHY
ROOT Hips
{
	OFFSET 0.000000 0.000000 0.000000
	CHANNELS 6 Xposition Yposition Zposition Xrotation Yrotation Zrotation
	JOINT LeftUpLeg_virtual
	{
		OFFSET 0.000000 0.000000 0.000000
		CHANNELS 3 Xrotation Yrotation Zrotation
		JOINT LeftUpLeg
		{
			OFFSET 13.026900 -6.336304 -1.092800
			CHANNELS 3 Xrotation Yrotation Zrotation
			JOINT LeftLeg
			{
				OFFSET 0.524474 -46.096886 9.782700
				CHANNELS 3 Xrotation Yrotation Zrotation
				JOINT LeftFoot
				{
					OFFSET -0.524474 -53.427422 -12.948200
					CHANNELS 3 Xrotation Yrotation Zrotation
					JOINT LeftToeBase
					{
						OFFSET 0.192200 -14.009700 16.364100
						CHANNELS 3 Xrotation Yrotation Zrotation
						JOINT LeftToe_End
						{
							OFFSET -1.784700 -0.561700 9.474800
							CHANNELS 3 Xrotation Yrotation Zrotation
							End Site
							{
								OFFSET 0 0 0
							}
						}
					}
				}
			}
		}
	}
	JOINT RightUpLeg_virtual
	{
		OFFSET 0.000000 0.000000 0.000000
		CHANNELS 3 Xrotation Yrotation Zrotation
		JOINT RightUpLeg
		{
			OFFSET -12.883000 -6.336304 -1.092800
			CHANNELS 3 Xrotation Yrotation Zrotation
			JOINT RightLeg
			{
				OFFSET -0.524587 -46.096825 9.782800
				CHANNELS 3 Xrotation Yrotation Zrotation
				JOINT RightFoot
				{
					OFFSET 0.524587 -53.427383 -12.948300
					CHANNELS 3 Xrotation Yrotation Zrotation
					JOINT RightToeBase
					{
						OFFSET -0.192200 -14.009700 16.364100
						CHANNELS 3 Xrotation Yrotation Zrotation
						JOINT RightToe_End
						{
							OFFSET 1.784700 -0.561700 9.474800
							CHANNELS 3 Xrotation Yrotation Zrotation
							End Site
							{
								OFFSET 0 0 0
							}
						}
					}
				}
			}
		}
	}
	JOINT Spine_virtual
	{
		OFFSET 0.000000 0.000000 0.000000
		CHANNELS 3 Xrotation Yrotation Zrotation
		JOINT Spine
		{
			OFFSET 0.072000 7.257294 -0.789700
			CHANNELS 3 Xrotation Yrotation Zrotation
			JOINT Spine1
			{
				OFFSET 0.000000 12.508769 -0.658067
				CHANNELS 3 Xrotation Yrotation Zrotation
				JOINT Spine1_split
				{
					OFFSET 0.000000 12.508769 -0.658067
					CHANNELS 3 Xrotation Yrotation Zrotation
					JOINT Spine2
					{
						OFFSET 0.000000 12.508769 -0.658067
						CHANNELS 3 Xrotation Yrotation Zrotation
						JOINT Neck_virtual
						{
							OFFSET 0.000000 0.000000 0.000000
							CHANNELS 3 Xrotation Yrotation Zrotation
							JOINT Neck
							{
								OFFSET 0.000000 14.033295 7.520400
								CHANNELS 3 Xrotation Yrotation Zrotation
								JOINT Head
								{
									OFFSET 0.000000 8.198502 5.703100
									CHANNELS 3 Xrotation Yrotation Zrotation
									JOINT HeadTop_End
									{
										OFFSET 0.000000 17.760803 13.332701
										CHANNELS 3 Xrotation Yrotation Zrotation
										End Site
										{
											OFFSET 0 0 0
										}
									}
								}
							}
						}
						JOINT LeftShoulder_virtual
						{
							OFFSET 0.000000 0.000000 0.000000
							CHANNELS 3 Xrotation Yrotation Zrotation
							JOINT LeftShoulder
							{
								OFFSET 6.292450 5.785301 -0.669000
								CHANNELS 3 Xrotation Yrotation Zrotation
								JOINT LeftShoulder_split
								{
									OFFSET 6.292450 5.785301 -0.669000
									CHANNELS 3 Xrotation Yrotation Zrotation
									JOINT LeftArm
									{
										OFFSET 13.907140 -6.093903 1.965100
										CHANNELS 3 Xrotation Yrotation Zrotation
										JOINT LeftForeArm
										{
											OFFSET 34.140198 0.000000 0.000000
											CHANNELS 3 Xrotation Yrotation Zrotation
											JOINT LeftHand
											{
												OFFSET 40.960209 0.000000 0.000000
												CHANNELS 3 Xrotation Yrotation Zrotation
												End Site
												{
													OFFSET 0 0 0
												}
											}
										}
									}
								}
							}
						}
						JOINT RightShoulder_virtual
						{
							OFFSET 0.000000 0.000000 0.000000
							CHANNELS 3 Xrotation Yrotation Zrotation
							JOINT RightShoulder
							{
								OFFSET -6.292450 5.785301 -0.669000
								CHANNELS 3 Xrotation Yrotation Zrotation
								JOINT RightShoulder_split
								{
									OFFSET -6.292450 5.785301 -0.669000
									CHANNELS 3 Xrotation Yrotation Zrotation
									JOINT RightArm
									{
										OFFSET -13.907140 -6.093903 1.965100
										CHANNELS 3 Xrotation Yrotation Zrotation
										JOINT RightForeArm
										{
											OFFSET -34.140198 0.000000 0.000000
											CHANNELS 3 Xrotation Yrotation Zrotation
											JOINT RightHand
											{
												OFFSET -40.960209 0.000000 0.000000
												CHANNELS 3 Xrotation Yrotation Zrotation
												End Site
												{
													OFFSET 0 0 0
												}
											}
										}
									}
								}
							}
						}
					}
				}
			}
		}
	}
}
MOTION
Frames: 11
Frame Time: 0.03333333
-42.109089 112.253143 -38.634632 0.000000 0.000000 0.000000 5.057109 -2.678167 -0.766336 -43.009879 1.499455 11.018194 35.341584 10.920523 1.087693 18.826124 8.814725 -5.489221 -2.369679 -0.068306 0.972721 0.000000 0.000000 0.000000 5.332338 -1.672871 -0.968098 -3.117800 -13.693968 -5.830375 22.472869 -6.565291 -0.969708 -12.859612 -4.590609 17.342441 -10.940232 0.371570 -0.150496 0.000000 0.000000 0.000000 5.284414 -0.360512 -1.702257 1.898381 1.732237 -3.095399 2.006059 2.283540 -0.690197 0.807015 0.126760 0.102341 0.000000 0.000000 0.000000 2.321177 2.291623 -1.026245 1.518309 0.715423 1.256431 -1.557931 11.337525 3.215017 0.000000 0.000000 0.000000 1.471413 2.288907 -1.503241 0.511474 -2.792510 -11.926560 -1.033038 0.174460 1.993797 -11.804602 22.895518 -36.041713 -0.547641 -62.939592 0.271489 0.000000 0.000000 0.000000 1.950647 2.682413 -0.532696 1.087098 -3.230319 9.853099 1.945854 1.769539 -2.978362 -15.081990 -16.296164 47.092324 0.375426 15.377015 -0.086841 0.000000 0.000000 0.000000 
-41.143898 113.560432 -39.105694 0.000000 0.000000 0.000000 5.151689 -3.142915 -0.327338 -37.986309 -0.676661 13.632985 38.385106 10.466741 0.769503 16.655140 11.478252 -3.711696 -1.524157 -0.000865 0.128603 0.000000 0.000000 0.000000 5.626726 -2.014785 -0.561306 -4.619677 -14.027276 -8.362832 22.071510 -5.423064 -0.433431 -9.146132 -2.144907 18.595731 -13.236386 0.220603 0.109537 0.000000 0.000000 0.000000 5.466515 0.036422 -1.335072 1.761675 2.502382 -3.505385 1.624897 3.293212 -1.151236 0.681348 -0.081277 0.341213 0.000000 0.000000 0.000000 1.851697 3.191015 -1.380084 0.949318 0.344820 1.929810 -1.976318 9.376425 3.536222 0.000000 0.000000 0.000000 1.088683 3.258542 -2.019109 0.787643 -2.855561 -12.543729 -1.415440 -0.229853 2.270480 2.174876 29.042415 -43.306569 -0.119759 -64.869940 0.455278 0.000000 0.000000 0.000000 1.670510 3.665917 -1.006978 1.106578 -2.994524 9.274483 2.549245 1.481136 -2.817823 -17.571454 -16.403041 44.974948 0.387151 16.753406 -0.405349 0.000000 0.000000 0.000000 
-40.011677 114.786934 -39.504200 0.000000 0.000000 0.000000 5.528627 -3.329076 -0.386242 -32.030070 -2.137002 17.080078 37.570921 11.106371 0.514624 15.520667 15.285880 -1.270385 0.595811 0.207200 -1.355748 0.000000 0.000000 0.000000 6.290020 -2.132577 -0.497248 -4.743963 -13.661586 -10.428906 19.735719 -4.441666 -0.023835 -6.398955 -0.323633 19.072286 -13.833962 0.070922 0.490191 0.000000 0.000000 0.000000 5.744117 0.111982 -1.366521 1.465580 3.066480 -3.661005 1.172575 4.115493 -1.461182 0.701899 0.027066 0.427978 0.000000 0.000000 0.000000 1.237303 3.936042 -1.624196 0.285824 0.023489 2.451848 -1.929686 7.212018 3.880700 0.000000 0.000000 0.000000 0.627208 4.041668 -2.316503 1.023838 -2.757050 -12.232655 -2.017896 -0.966907 2.232271 14.513676 32.853408 -50.600989 0.335888 -63.783640 0.719358 0.000000 0.000000 0.000000 1.309032 4.468412 -1.343524 1.188314 -2.888833 8.794117 2.689498 1.278036 -2.386102 -19.465494 -17.132949 42.968857 0.251044 17.847496 -0.573635 0.000000 0.000000 0.000000 
-38.645390 115.705139 -39.721981 0.000000 0.000000 0.000000 6.274076 -2.607361 -0.980737 -26.213168 -2.441828 21.218754 33.388215 12.106585 0.549315 15.463613 18.598030 0.389846 2.266797 0.410810 -3.050371 0.000000 0.000000 0.000000 7.135509 -1.298075 -0.943273 -3.520386 -12.838604 -11.631806 15.870033 -3.784841 0.218279 -4.777235 0.495472 19.454981 -13.128576 0.006111 0.640611 0.000000 0.000000 0.000000 6.095924 0.638753 -1.747954 1.055794 3.347990 -3.501159 0.685107 4.619824 -1.619748 1.087715 0.260970 0.644481 0.000000 0.000000 0.000000 0.573564 4.403714 -1.746615 -0.381060 -0.260492 2.709579 -1.438164 4.975566 4.210251 0.000000 0.000000 0.000000 0.132297 4.501873 -2.375880 1.211469 -2.591912 -11.157839 -2.805755 -1.480129 1.633382 22.884641 35.194927 -56.141751 0.614532 -60.108772 0.913463 0.000000 0.000000 0.000000 0.891112 4.957640 -1.511010 1.295625 -2.862842 8.397867 2.381709 1.196564 -1.600529 -20.716249 -18.227014 40.847670 0.037239 18.842764 -0.566213 0.000000 0.000000 0.000000 
-36.898033 115.960312 -39.977055 0.000000 0.000000 0.000000 7.154793 -0.539172 -1.823625 -22.096120 -1.037261 25.570794 27.973067 12.655851 0.739259 16.320372 19.491097 0.535215 2.097479 0.503221 -4.363557 0.000000 0.000000 0.000000 8.011499 0.941145 -1.778934 -1.650695 -11.894476 -11.995879 11.345042 -3.341095 0.198504 -4.445817 0.252645 20.583183 -11.915665 0.045466 0.246498 0.000000 0.000000 0.000000 6.568552 1.924233 -2.313154 0.673691 3.356807 -3.048715 0.190354 4.757162 -1.676882 1.339139 0.683416 0.601596 0.000000 0.000000 0.000000 -0.095913 4.543468 -1.780182 -0.897040 -0.564000 2.701023 -0.681079 2.941630 4.458740 0.000000 0.000000 0.000000 -0.345296 4.609828 -2.251383 1.333426 -2.371576 -9.543977 -3.620686 -1.739087 0.632395 26.827535 37.125753 -59.162941 0.630301 -54.140594 0.940595 0.000000 0.000000 0.000000 0.475628 5.079580 -1.540096 1.390309 -2.946712 8.105158 1.949509 1.010964 -0.691978 -21.182747 -19.338574 38.643038 -0.145095 19.914291 -0.434080 0.000000 0.000000 0.000000 
-34.671707 115.375435 -40.137554 0.000000 0.000000 0.000000 8.143436 2.594323 -2.580138 -20.374514 1.353121 29.390184 23.303205 11.826250 0.974802 18.217265 16.782784 -1.737798 -1.044366 0.494385 -4.525172 0.000000 0.000000 0.000000 8.684306 4.477799 -2.675839 0.362939 -11.057610 -11.855629 7.811768 -3.089410 -0.037237 -5.389781 -1.087033 22.287630 -10.575817 0.158465 -0.681592 0.000000 0.000000 0.000000 7.182333 4.171372 -2.755463 0.373279 3.142002 -2.470758 -0.263731 4.566758 -1.699679 1.438719 1.237266 0.367567 0.000000 0.000000 0.000000 -0.703749 4.381934 -1.781961 -1.245101 -0.917461 2.518161 0.133071 1.243731 4.591660 0.000000 0.000000 0.000000 -0.753639 4.426179 -2.041597 1.399425 -2.229958 -7.826283 -4.450697 -1.628689 -0.746690 27.102860 39.084251 -59.776695 0.368447 -46.615249 0.795060 0.000000 0.000000 0.000000 0.085411 4.861245 -1.518217 1.427702 -3.171589 7.857008 1.570046 0.890852 0.223431 -20.979454 -20.223917 36.448574 -0.125446 21.170351 -0.347303 0.000000 0.000000 0.000000 
-31.968967 114.127136 -40.312458 0.000000 0.000000 0.000000 8.981602 6.228286 -2.868770 -20.504347 3.805462 31.797990 20.588721 9.590779 1.199644 19.438237 11.191700 -5.643405 -6.167464 0.350153 -3.506154 0.000000 0.000000 0.000000 9.111483 8.809772 -3.244386 2.094685 -10.613130 -11.755594 6.483712 -3.392649 -0.296038 -7.166374 -3.458855 23.247930 -8.978770 0.265488 -1.682828 0.000000 0.000000 0.000000 7.959455 7.552282 -2.882178 0.158255 2.803737 -2.006414 -0.662635 4.170748 -1.705448 1.431916 1.567804 0.102635 0.000000 0.000000 0.000000 -1.216500 4.010654 -1.779475 -1.514155 -1.343635 2.245671 0.739703 0.057804 4.554815 0.000000 0.000000 0.000000 -1.037805 4.060697 -1.825943 1.430523 -2.182493 -6.415725 -4.713396 -1.251166 -1.898563 25.036550 40.490560 -58.375195 0.090595 -38.895837 0.607345 0.000000 0.000000 0.000000 -0.253706 4.429056 -1.497573 1.386172 -3.568969 7.751332 1.357168 0.997400 0.746887 -20.552610 -21.057082 34.674924 0.149311 22.731177 -0.439468 0.000000 0.000000 0.000000 
-28.758162 112.529762 -40.801739 0.000000 0.000000 0.000000 9.556920 10.137054 -2.515112 -21.539907 6.273506 32.189268 19.874040 7.335652 1.434165 17.678162 5.236913 -9.776200 -9.778055 0.080298 -2.059599 0.000000 0.000000 0.000000 9.343562 13.167321 -3.120178 3.209556 -10.431837 -12.289937 7.017814 -4.306931 -0.655145 -9.411015 -6.376790 22.273623 -7.469168 0.330633 -2.254306 0.000000 0.000000 0.000000 8.837066 11.212366 -2.546955 -0.038407 2.433005 -1.784493 -0.959253 3.694230 -1.690408 1.377952 1.775416 -0.314557 0.000000 0.000000 0.000000 -1.585783 3.557300 -1.786987 -1.709897 -1.795314 2.036560 1.067896 -0.534655 4.303248 0.000000 0.000000 0.000000 -1.186105 3.633764 -1.647083 1.419253 -2.235848 -5.580364 -4.646918 -0.982048 -2.553172 21.888887 40.851396 -55.865371 -0.161885 -32.067079 0.405428 0.000000 0.000000 0.000000 -0.490414 3.922833 -1.507315 1.279494 -4.097498 7.827880 1.145423 1.245837 0.785878 -20.611824 -21.841075 33.751530 0.615077 24.849471 -0.729301 0.000000 0.000000 0.000000 
-25.054697 111.150276 -41.436039 0.000000 0.000000 0.000000 9.871114 14.007630 -1.613315 -22.254481 8.365588 30.500077 20.219990 5.864218 1.832579 13.325664 0.933645 -14.408055 -10.038706 -0.108396 -0.978122 0.000000 0.000000 0.000000 9.486479 16.852807 -2.244308 3.470040 -10.075559 -13.886744 9.323024 -5.628492 -1.015259 -10.961081 -8.884640 18.895624 -7.015014 0.366064 -1.967210 0.000000 0.000000 0.000000 9.612189 14.731077 -1.706567 -0.294803 2.076008 -1.855097 -1.113988 3.250793 -1.631133 1.469668 1.579504 -0.378523 0.000000 0.000000 0.000000 -1.743363 3.142659 -1.775058 -1.929412 -2.151951 1.944353 1.076803 -0.560981 3.837759 0.000000 0.000000 0.000000 -1.239073 3.252897 -1.507063 1.367721 -2.379828 -5.554861 -4.222947 -0.873880 -2.665863 18.675494 39.992352 -53.257939 -0.364423 -26.889690 0.204150 0.000000 0.000000 0.000000 -0.637093 3.472273 -1.517153 1.162388 -4.620022 8.094785 0.842939 1.574399 0.483868 -21.635698 -22.690997 33.949425 1.112996 27.687719 -1.162693 0.000000 0.000000 0.000000 
-20.921738 110.275215 -42.233845 0.000000 0.000000 0.000000 9.818087 17.434608 -0.253763 -22.171255 9.622416 27.065390 20.951778 5.156543 2.382814 7.955220 -0.920172 -19.703626 -7.931476 -0.075160 -0.463291 0.000000 0.000000 0.000000 9.779440 19.268609 -0.773341 2.244396 -9.169996 -16.713891 12.588750 -6.909348 -1.322894 -10.265758 -10.252549 14.321581 -9.095565 0.310460 -0.759717 0.000000 0.000000 0.000000 10.057922 17.450273 -0.453346 -0.621384 1.761232 -2.133331 -1.116472 2.883532 -1.498665 1.529391 1.002324 -0.363855 0.000000 0.000000 0.000000 -1.691617 2.817842 -1.719285 -2.186135 -2.349289 1.944220 0.839149 -0.089047 3.189146 0.000000 0.000000 0.000000 -1.237480 2.950469 -1.382439 1.286100 -2.579620 -6.205448 -3.882124 -0.781434 -2.392092 16.036644 38.062814 -51.293198 -0.469893 -23.553033 0.002209 0.000000 0.000000 0.000000 -0.683769 3.116579 -1.474244 1.085355 -4.978060 8.621050 0.356864 1.885707 0.049411 -23.428285 -23.498298 35.463035 1.490985 31.552537 -1.570177 0.000000 0.000000 0.000000 
-16.683020 110.097130 -42.932346 0.000000 0.000000 0.000000 9.564722 19.998765 1.315863 -21.150593 9.999996 22.883774 21.575558 5.082288 2.893075 3.374403 -0.852725 -24.684445 -5.977938 0.049123 -0.219148 0.000000 0.000000 0.000000 10.076814 20.601879 0.919155 -0.736261 -7.261217 -20.123184 16.213052 -7.489533 -1.709560 -6.545273 -10.238540 10.597733 -14.543677 0.024080 0.982492 0.000000 0.000000 0.000000 9.986472 18.936184 1.073778 -0.919234 1.457222 -2.497893 -0.937869 2.560382 -1.307347 1.425979 0.244727 -0.201524 0.000000 0.000000 0.000000 -1.457731 2.578621 -1.593844 -2.483710 -2.275104 1.984106 0.407505 0.796767 2.456369 0.000000 0.000000 0.000000 -1.167782 2.688455 -1.251254 1.191071 -2.854915 -7.251089 -3.768107 -0.672438 -2.193792 14.068943 35.495967 -50.279133 -0.446987 -21.794664 -0.194022 0.000000 0.000000 0.000000 -0.641622 2.826132 -1.341316 1.061393 -4.964730 9.265949 -0.313892 2.191450 -0.151991 -25.161865 -23.691580 37.882644 1.726033 36.526329 -1.818195 0.000000 0.000000 0.000000 
